<?xml version="1.0" standalone="no"?><!DOCTYPE svg PUBLIC "-//W3C//DTD SVG 1.1//EN" "http://www.w3.org/Graphics/SVG/1.1/DTD/svg11.dtd"><svg t="1713425463336" class="icon" viewBox="0 0 1024 1024" version="1.1" xmlns="http://www.w3.org/2000/svg" p-id="25333" xmlns:xlink="http://www.w3.org/1999/xlink" width="200" height="200"><path d="M340.415334 803.205724a17.99982 17.99982 0 0 1-15.219467-27.566342l171.5649-273.199316a17.99982 17.99982 0 1 1 30.478466 19.146222l-171.564901 273.186138a17.986643 17.986643 0 0 1-15.258998 8.433298z" fill="#13227a" p-id="25334"></path><path d="M511.993411 530.006408a17.99982 17.99982 0 0 1-17.999819-17.999819V115.760188a17.99982 17.99982 0 0 1 35.999639 0v396.233223a17.99982 17.99982 0 0 1-17.99982 18.012997z" fill="#13227a" p-id="25335"></path><path d="M512.006589 511.993411m-75.227652 0a75.227651 75.227651 0 1 0 150.455303 0 75.227651 75.227651 0 1 0-150.455303 0Z" fill="#13227a" p-id="25336"></path><path d="M511.993411 605.23406a93.227471 93.227471 0 1 1 93.227472-93.227471 93.332887 93.332887 0 0 1-93.227472 93.227471z m0-150.455303a57.227831 57.227831 0 1 0 57.227832 57.227832 57.293716 57.293716 0 0 0-57.227832-57.241009z" fill="#13227a" p-id="25337"></path><path d="M932.814968 1024H91.211386a91.290448 91.290448 0 0 1-91.185032-91.185032V91.185032A91.290448 91.290448 0 0 1 91.211386 0h841.603582a91.290448 91.290448 0 0 1 91.185032 91.185032v841.629936a91.290448 91.290448 0 0 1-91.185032 91.185032zM91.211386 35.99964A55.251277 55.251277 0 0 0 36.025994 91.185032v841.629936a55.251277 55.251277 0 0 0 55.185392 55.198569h841.603582a55.251277 55.251277 0 0 0 55.185392-55.185392V91.185032a55.251277 55.251277 0 0 0-55.185392-55.185392H91.211386z" fill="#13227a" p-id="25338"></path></svg>