<?xml version="1.0" standalone="no"?><!DOCTYPE svg PUBLIC "-//W3C//DTD SVG 1.1//EN" "http://www.w3.org/Graphics/SVG/1.1/DTD/svg11.dtd"><svg t="1713423114285" class="icon" viewBox="0 0 1024 1024" version="1.1" xmlns="http://www.w3.org/2000/svg" p-id="9166" width="200" height="200" xmlns:xlink="http://www.w3.org/1999/xlink"><path d="M1.711 579.901l87.536 204.25h776.146l157.563-198.414L1.711 579.901z m837.42 134.221c-17.726 0-32.095-14.369-32.095-32.096 0-17.726 14.37-32.096 32.096-32.096s32.096 14.37 32.096 32.096-14.37 32.096-32.096 32.096zM666.98 434.01V171.404h-93.37V434.01c31.119 1.944 62.249-1.946 93.37 0z m215.92 23.342H515.25v-58.357H112.588v151.728h770.31v-93.37zM203.04 509.874c-17.726 0-32.096-14.37-32.096-32.096s14.37-32.096 32.096-32.096 32.096 14.369 32.096 32.096-14.369 32.096-32.096 32.096z m110.879 0c-17.727 0-32.096-14.37-32.096-32.096s14.369-32.096 32.096-32.096 32.096 14.369 32.096 32.096-14.37 32.096-32.096 32.096z m110.878 0c-17.727 0-32.096-14.37-32.096-32.096s14.37-32.096 32.096-32.096 32.096 14.369 32.096 32.096-14.37 32.096-32.096 32.096zM812.87 434.01c1.946-89.472 3.891-173.134 5.836-262.606h-93.37V434.01c29.174 1.944 58.359-1.946 87.534 0z" p-id="9167" fill="#1296db"></path></svg>